<svg xmlns="http://www.w3.org/2000/svg" viewBox="0 0 96 60"><defs><clipPath id="clip-path"><path id="SVGID" fill="none" d="M3.26 0h15.18v7.34H3.26z"/></clipPath><style>.cls-2{fill:#fff}</style></defs><path class="cls-2" d="M33.06 58.15a3.23 3.23 0 01-2.24.89 3.3 3.3 0 01-3.35-3.53 3.32 3.32 0 015.44-2.77l.4-.48a3.63 3.63 0 00-2.52-.91 4.16 4.16 0 000 8.32 3.67 3.67 0 002.63-1.07zm6.77-1.54v-.38a2.86 2.86 0 00-3-3 3.2 3.2 0 00.09 6.4 2.93 2.93 0 002.83-1.91l-.52-.23A2.39 2.39 0 0136.91 59a2.33 2.33 0 01-2.42-2.41zm-3-2.79A2.18 2.18 0 0139.14 56h-4.62a2.23 2.23 0 012.28-2.21m7.41 5.7h.67v-4.1c0-1.2-.56-2.16-2-2.16a1.72 1.72 0 00-1.48.71v-.64h-.67v6.19h.67v-4c0-1 .49-1.68 1.41-1.68s1.35.6 1.35 1.62zm2.66-7.13h-.67v.94h-.67v.59h.67v4.16c0 1 .25 1.49 1.39 1.49h.59V59h-.52c-.71 0-.79-.36-.79-1v-4h1.32v-.59h-1.32zm7.63 4.22v-.38a2.87 2.87 0 00-3-3 3.2 3.2 0 00.09 6.4 2.93 2.93 0 002.82-1.91l-.52-.23A2.36 2.36 0 0151.58 59a2.32 2.32 0 01-2.42-2.41zm-3-2.79A2.18 2.18 0 0153.8 56h-4.62a2.23 2.23 0 012.28-2.21m6.21-.49a1.62 1.62 0 00-1.55.69v-.69h-.67v6.19h.67v-4c0-1 .44-1.52 1.33-1.52h.22zm-26.36-6.81a1.91 1.91 0 00-1.23-2 1.84 1.84 0 001-1.74c0-1.39-.86-2-2.26-2h-1.69v8h1.78a2.19 2.19 0 002.4-2.26m-2.42-1.59a1.49 1.49 0 011.7 1.59 1.53 1.53 0 01-1.7 1.65h-1.07V44.9zm-.08-3.54a1.34 1.34 0 011.54 1.46 1.37 1.37 0 01-1.54 1.49h-1v-3zm4.19 1.2h-.67v6.19H33zm-.33-.81a.55.55 0 10-.55-.54.53.53 0 00.55.54m2 3.91a2.47 2.47 0 112.47 2.6 2.45 2.45 0 01-2.47-2.6m-.69 0a3 3 0 003.14 3.2 3.2 3.2 0 000-6.4 3.09 3.09 0 00-3.12 3.2m12.54 3.09h.68v-8.46h-.68v3.39a2.85 2.85 0 00-2.42-1.22 3.09 3.09 0 00-3.12 3.2 3 3 0 003.14 3.2 2.69 2.69 0 002.42-1.31zm-4.87-3.09a2.46 2.46 0 112.45 2.6 2.44 2.44 0 01-2.45-2.6m7.56-3.1h-.67v6.19h.67zm-.34-.81a.55.55 0 10-.54-.54.53.53 0 00.54.54m1.73.81h-.74l2.54 6.19h.73l2.53-6.19H55L52.81 48zm11.12 3.29v-.38a2.86 2.86 0 00-3-3 3.2 3.2 0 00.1 6.4A2.93 2.93 0 0061.65 47l-.52-.23a2.36 2.36 0 01-2.3 1.54 2.32 2.32 0 01-2.42-2.41zm-3-2.79a2.18 2.18 0 012.34 2.21h-4.65a2.23 2.23 0 012.28-2.21m6.2-.5a1.66 1.66 0 00-1.55.7v-.7h-.67v6.19h.67v-4c0-1 .44-1.53 1.33-1.53h.22zM66.05 44a1 1 0 011.09-1c.74 0 1.1.47 1.13 1.24h.64a1.63 1.63 0 00-1.76-1.8 1.58 1.58 0 00-1.76 1.57 1.53 1.53 0 001 1.5c.4.19.81.27 1.21.43a1.16 1.16 0 01-.42 2.27c-1 0-1.28-.63-1.31-1.39h-.67a1.78 1.78 0 001.94 2 1.75 1.75 0 002-1.72 1.68 1.68 0 00-1.2-1.7c-.43-.18-.78-.22-1.16-.4a1 1 0 01-.68-1m4.63-1.46H70v6.19h.67zm-.34-.81a.55.55 0 100-1.09.55.55 0 000 1.09m2.47-.13h-.67v.94h-.67v.59h.67v4.17c0 1 .25 1.48 1.39 1.48h.59v-.59h-.57c-.71 0-.79-.36-.79-1v-4.04h1.32v-.59h-1.32zM77 50.78l3.31-8.22h-.71l-2.09 5.34-2.24-5.34h-.75l2.63 6.19-.81 2zm-42.27-13.3h2.94v-12.3H34.8v7.43l-4.62-7.43h-3.05v12.3H30v-7.27zm11.32 0h2.64V28H46v.61a3.87 3.87 0 00-2.49-.77 4.69 4.69 0 00-4.89 4.91 4.64 4.64 0 004.89 4.92 3.86 3.86 0 002.54-.78zm-4.58-4.76a2.17 2.17 0 012.22-2.36 2.21 2.21 0 012.22 2.36 2.18 2.18 0 01-2.2 2.38 2.21 2.21 0 01-2.24-2.38m11.89-6.26H50.5V28h-.84v2.4h.84V35a2.35 2.35 0 002.68 2.58 4.21 4.21 0 001.44-.18V35h-.48c-.51 0-.78-.21-.78-.85v-3.78h1.26V28h-1.26zM58.55 28h-2.86v6.24c0 2 .83 3.38 3 3.38a2.54 2.54 0 001.88-.71v.6h2.84V28h-2.89v5.91c0 .69-.35 1.15-1 1.15s-1-.46-1-1.15zm10.65 0a1.86 1.86 0 00-1.67.71V28h-2.87v9.51h2.87v-5.7c0-.58.19-.89 1-.89h.71zm7.8 9.48h2.63V28H77v.61a3.87 3.87 0 00-2.49-.77 4.68 4.68 0 00-4.88 4.91 4.63 4.63 0 004.88 4.92 3.9 3.9 0 002.49-.81zm-4.59-4.76a2.17 2.17 0 012.22-2.36 2.21 2.21 0 012.22 2.36 2.17 2.17 0 01-2.2 2.38 2.21 2.21 0 01-2.24-2.38m11.39-8.23H81v13h2.86zM88 28h-2.88v9.51H88zm-1.48-.37A1.63 1.63 0 1084.89 26a1.62 1.62 0 001.62 1.62m5.21 3c0-.35.26-.58.69-.58s.84.35.85.92h2.62c0-2.18-1.39-3.09-3.42-3.09S89 29 89 30.82a2.78 2.78 0 002 2.88 11.57 11.57 0 001.44.37c.59.13.78.3.78.69s-.33.59-.81.59c-.73 0-.89-.52-.87-1h-2.68c-.08 1.65.74 3.25 3.55 3.25 1.9 0 3.63-.91 3.63-3.15 0-1.72-.75-2.49-2.4-2.95-.32-.09-.75-.16-1.16-.25s-.76-.3-.76-.66m-77.43 4.3V12.56a3.86 3.86 0 017.72 0l.07 22.33zM3.93 38.72a3.86 3.86 0 01-3.86-3.86V12.49h7.71v22.37a3.85 3.85 0 01-3.85 3.86"/><path class="cls-2" d="M20.3 38.13A3.86 3.86 0 0115 37L.67 14.59a3.85 3.85 0 011.18-5.33 3.87 3.87 0 015.33 1.18l14.3 22.36a3.86 3.86 0 01-1.18 5.33m1.78 6.65a3.86 3.86 0 01-3.86 3.86H3.86a3.86 3.86 0 010-7.72h14.36a3.86 3.86 0 013.86 3.86m0 10.77a3.86 3.86 0 01-3.86 3.86H3.86a3.86 3.86 0 010-7.72h14.36a3.86 3.86 0 013.86 3.86"/><g clip-path="url(#clip-path)"><path class="cls-2" d="M18.42 6.54a.63.63 0 00-.75-.43h-.74a4 4 0 001.2-2.54A2.48 2.48 0 0016.65 1a1.89 1.89 0 00-1.51 0 2.51 2.51 0 00-1.09 1.12 4.39 4.39 0 00-.34 3.2v.14a1.18 1.18 0 00.11.19c-.25 0-.49 0-.73-.06a7.68 7.68 0 01-1.26-.29 2.72 2.72 0 00.79-1.46A3.39 3.39 0 0011.87.6a2.12 2.12 0 00-3 0 3.21 3.21 0 00-.65 2 4 4 0 000 .49v.05a4 4 0 00.37 1.36l.08.18a.35.35 0 00.12.15c.06.08.13.15.2.23l-.85.11a15 15 0 00-1.65.32 7.31 7.31 0 00.63-1.43 2.66 2.66 0 00-.54-3 2.13 2.13 0 00-2.75 0 2.16 2.16 0 00-.29 2.76.61.61 0 001.06-.62A1 1 0 014.83 2a.91.91 0 011.29.36 2.69 2.69 0 01-.29 2c-.31.72-.83 1.32-1.14 2.05a.62.62 0 00.84.83 9.23 9.23 0 013.22-.87 13 13 0 001.72-.31 8.49 8.49 0 002.53.72 8.3 8.3 0 002.17 0 4.49 4.49 0 002.83.51.62.62 0 00.42-.75zM9.66 1.7a1.31 1.31 0 01.23-.35l.11-.08.16-.05a.65.65 0 01.14 0h.12l.27.08s-.09-.05 0 0l.15.08h.07l.06.05a1.07 1.07 0 01.18.19c0-.06 0 0 0 0l.09.14.06.13V2a2.33 2.33 0 01.07.25v.2a4.42 4.42 0 010 .63 3.17 3.17 0 01-.23.93 1.76 1.76 0 01-.14.23l-.08.08-.11.07h-.66l-.16-.09a1.31 1.31 0 01-.19-.18A1.46 1.46 0 019.73 4a3.12 3.12 0 01-.07-2.3zm5.17 1.92a5.29 5.29 0 01.17-.54l.09-.24c0 .1 0-.1.06-.12a2 2 0 01.24-.37.87.87 0 01.34-.27h.5l.18.11.13.12a1.33 1.33 0 01.32.74 2.82 2.82 0 01-.7 2 .93.93 0 01-.33.25l-.25.07h-.33l-.12-.06h-.06a1.06 1.06 0 01-.26-.35V4.8a.76.76 0 010-.16 4.78 4.78 0 010-.53 4.09 4.09 0 01.02-.49z"/></g></svg>